<svg xmlns="http://www.w3.org/2000/svg" xmlns:xlink="http://www.w3.org/1999/xlink" version="1.1" x="0px" y="0px" viewBox="0 0 100 125" width="60" height="60" enable-background="new 0 0 100 100" xml:space="preserve"><g><path fill="#000000" d="M56.5,93.3h-13c-10.9,0-19.7-8.8-19.7-19.7V32.1c0-12.6,10.3-22.9,22.9-22.9h6.6   c12.6,0,22.9,10.3,22.9,22.9v41.5C76.2,84.5,67.4,93.3,56.5,93.3z M46.7,13.7c-10.1,0-18.4,8.3-18.4,18.4v41.5   c0,8.4,6.8,15.2,15.2,15.2h13c8.4,0,15.2-6.8,15.2-15.2V32.1c0-10.1-8.3-18.4-18.4-18.4H46.7z"/><g><path fill="#000000" d="M61.5,44.2c-4.4-1.6-18.5-1.6-22.9,0c-0.8,0.3-1.6-0.1-1.8-0.9l-2.5-11.1c10.8-3.9,21.4-4.1,31.6,0    l-2.5,11.1C63.1,44,62.3,44.4,61.5,44.2z"/><path fill="#000000" d="M38.6,63.2c4.4,1.6,18.5,1.6,22.9,0c0.8-0.3,1.6,0.1,1.8,0.9l2.5,11.1c-10.8,3.9-21.4,4.1-31.6,0l2.5-11.1    C37,63.4,37.8,62.9,38.6,63.2z"/></g><path fill="#000000" d="M25.9,28.3h-2.1c-1.1,0-2.1,0.9-2.1,2.1v14.3c0,1.1,0.9,2.1,2.1,2.1h2.1c1.1,0,2.1-0.9,2.1-2.1V30.4   C28,29.3,27.1,28.3,25.9,28.3z"/><path fill="#000000" d="M25.9,60.3h-2.1c-1.1,0-2.1,0.9-2.1,2.1v14.3c0,1.1,0.9,2.1,2.1,2.1h2.1c1.1,0,2.1-0.9,2.1-2.1V62.3   C28,61.2,27.1,60.3,25.9,60.3z"/><g><path fill="#000000" d="M31.8,35.6v34.1c0,0.2,0.3,0.3,0.4,0.1l3.5-9.3c0,0,0-0.1,0-0.1V46.9c0,0,0-0.1,0-0.1l-3.5-11.3    C32.1,35.2,31.8,35.3,31.8,35.6z"/><path fill="#000000" d="M68.3,35.6v34.1c0,0.2-0.3,0.3-0.4,0.1l-3.5-9.3c0,0,0-0.1,0-0.1V46.9c0,0,0-0.1,0-0.1l3.5-11.3    C68,35.2,68.3,35.3,68.3,35.6z"/></g><path fill="#000000" d="M74.9,28.3H77c1.1,0,2.1,0.9,2.1,2.1v14.3c0,1.1-0.9,2.1-2.1,2.1h-2.1c-1.1,0-2.1-0.9-2.1-2.1V30.4   C72.9,29.3,73.8,28.3,74.9,28.3z"/><path fill="#000000" d="M74.9,60.3H77c1.1,0,2.1,0.9,2.1,2.1v14.3c0,1.1-0.9,2.1-2.1,2.1h-2.1c-1.1,0-2.1-0.9-2.1-2.1V62.3   C72.9,61.2,73.8,60.3,74.9,60.3z"/></g></svg>
